<svg aria-hidden="true" style="position: absolute; width: 0; height: 0; overflow: hidden;" version="1.1" xmlns="http://www.w3.org/2000/svg" xmlns:xlink="http://www.w3.org/1999/xlink">
<defs>
<symbol id="icon-facebook" viewBox="0 0 32 32">
<path d="M32 15.901c-0.037-3.068-0.945-6.061-2.617-8.627s-4.037-4.598-6.818-5.857c-2.781-1.259-5.862-1.692-8.879-1.248s-5.846 1.746-8.152 3.753c-2.306 2.007-3.995 4.635-4.866 7.576s-0.89 6.070-0.053 9.020c0.837 2.95 2.494 5.598 4.777 7.633s5.096 3.37 8.108 3.849v-11.41h-4v-4.689h4v-3.562c-0.093-0.828-0.003-1.667 0.261-2.457s0.699-1.511 1.271-2.114c0.572-0.603 1.269-1.072 2.041-1.374s1.601-0.43 2.427-0.375c1.2 0.017 2.396 0.124 3.58 0.322v4.025h-2c-0.345-0.044-0.695-0.009-1.025 0.102s-0.631 0.295-0.88 0.538c-0.25 0.243-0.442 0.54-0.562 0.868s-0.166 0.679-0.133 1.028v3.039h4.44l-0.72 4.689h-3.7v11.269c3.78-0.602 7.22-2.546 9.697-5.482s3.826-6.666 3.803-10.517z"></path>
</symbol>
<symbol id="icon-instagram" viewBox="0 0 32 32">
<path d="M16 24c-4.418 0-8-3.582-8-8s3.582-8 8-8c4.418 0 8 3.582 8 8s-3.582 8-8 8zM16 21.333c2.945 0 5.333-2.388 5.333-5.333s-2.388-5.333-5.333-5.333c-2.946 0-5.333 2.388-5.333 5.333s2.388 5.333 5.333 5.333z"></path>
<path d="M24 6.667c-0.736 0-1.333 0.597-1.333 1.333s0.597 1.333 1.333 1.333c0.736 0 1.333-0.597 1.333-1.333s-0.597-1.333-1.333-1.333z"></path>
<path d="M2.205 5.701c0.767-1.505 1.991-2.729 3.496-3.496 1.711-0.872 3.951-0.872 8.432-0.872h3.733c4.48 0 6.721 0 8.432 0.872 1.505 0.767 2.729 1.991 3.496 3.496 0.872 1.711 0.872 3.952 0.872 8.432v3.733c0 4.48 0 6.721-0.872 8.432-0.767 1.505-1.991 2.729-3.496 3.496-1.711 0.872-3.951 0.872-8.432 0.872h-3.733c-4.48 0-6.721 0-8.432-0.872-1.505-0.767-2.729-1.991-3.496-3.496-0.872-1.711-0.872-3.951-0.872-8.432v-3.733c0-4.48 0-6.721 0.872-8.432zM17.867 4h-3.733c-2.284 0-3.837 0.002-5.037 0.1-1.169 0.096-1.767 0.269-2.184 0.481-1.004 0.511-1.819 1.327-2.331 2.331-0.213 0.417-0.386 1.015-0.481 2.184-0.098 1.2-0.1 2.753-0.1 5.037v3.733c0 2.284 0.002 3.837 0.1 5.037 0.096 1.169 0.269 1.767 0.481 2.184 0.511 1.003 1.327 1.819 2.331 2.331 0.417 0.213 1.015 0.386 2.184 0.481 1.2 0.098 2.753 0.1 5.037 0.1h3.733c2.284 0 3.837-0.002 5.037-0.1 1.169-0.096 1.767-0.269 2.184-0.481 1.003-0.511 1.819-1.327 2.331-2.331 0.213-0.417 0.386-1.015 0.481-2.184 0.098-1.2 0.1-2.753 0.1-5.037v-3.733c0-2.284-0.002-3.837-0.1-5.037-0.096-1.169-0.269-1.767-0.481-2.184-0.511-1.004-1.327-1.819-2.331-2.331-0.417-0.213-1.015-0.386-2.184-0.481-1.2-0.098-2.753-0.1-5.037-0.1z"></path>
</symbol>
<symbol id="icon-mail" viewBox="0 0 32 32">
<path d="M16 18.416l-3.316-2.749-11.569 11.843h29.476l-11.356-11.863-3.235 2.769zM20.89 14.39l11.002 11.439c0.063-0.222 0.108-0.452 0.108-0.695v-19.772l-11.11 9.028zM0 5.316v19.818c0 0.243 0.045 0.473 0.108 0.695l11.039-11.402-11.147-9.111zM31 3.5h-30l15 12.019 15-12.019z"></path>
</symbol>
<symbol id="icon-phone" viewBox="0 0 32 32">
<path d="M13.383 7.088l0.865 1.551c0.781 1.399 0.467 3.235-0.763 4.465 0 0-1.492 1.492 1.213 4.197s4.197 1.213 4.197 1.213c1.23-1.23 3.066-1.543 4.465-0.762l1.551 0.865c2.113 1.179 2.362 4.142 0.505 6-1.116 1.116-2.483 1.984-3.995 2.042-2.544 0.097-6.865-0.547-11.199-4.881s-4.978-8.655-4.882-11.199c0.057-1.511 0.926-2.878 2.042-3.994 1.857-1.857 4.82-1.608 6 0.505z"></path>
</symbol>
<symbol id="icon-whatsapp" viewBox="0 0 32 32">
<path d="M25.314 22.594c-0.386 1.092-1.918 1.995-3.141 2.259-0.837 0.178-1.928 0.318-5.605-1.206-4.13-1.711-9.864-7.805-9.864-11.861 0-2.065 1.19-4.469 3.272-4.469 1.002 0 1.222 0.020 1.552 0.81 0.386 0.931 1.326 3.226 1.438 3.462 0.462 0.965-0.47 1.53-1.147 2.37-0.216 0.253-0.461 0.526-0.187 0.997 0.272 0.461 1.213 1.994 2.595 3.225 1.786 1.591 3.234 2.099 3.752 2.315 0.386 0.16 0.846 0.123 1.128-0.178 0.357-0.386 0.8-1.026 1.251-1.656 0.318-0.451 0.723-0.508 1.147-0.348 0.286 0.099 3.926 1.79 4.080 2.060 0.114 0.197 0.114 1.128-0.272 2.22zM16.003 0h-0.008c-8.821 0-15.995 7.177-15.995 16 0 3.499 1.128 6.745 3.046 9.377l-1.994 5.945 6.149-1.965c2.53 1.674 5.549 2.642 8.802 2.642 8.821 0 15.997-7.177 15.997-16s-7.176-16-15.997-16z"></path>
</symbol>
</defs>
</svg>
