<svg aria-hidden="true" style="position: absolute; width: 0; height: 0; overflow: hidden;" version="1.1" xmlns="http://www.w3.org/2000/svg" xmlns:xlink="http://www.w3.org/1999/xlink">
<defs>
<symbol id="icon-bedroom-icon" viewBox="0 0 32 32">
<path d="M31.347 14.367h-11.755v-13.714c0-0.361-0.292-0.653-0.653-0.653h-18.286c-0.361 0-0.653 0.292-0.653 0.653v30.694c0 0.361 0.292 0.653 0.653 0.653h17.306c0.361 0 0.653-0.292 0.653-0.653v-1.959h7.837v1.959c0 0.361 0.292 0.653 0.653 0.653h2.286c0.361 0 0.653-0.292 0.653-0.653v-1.959h0.326c0.361 0 0.653-0.292 0.653-0.653v-10.775h0.327c0.361 0 0.653-0.292 0.653-0.653v-2.286c0-0.361-0.292-0.653-0.653-0.653zM9.143 30.694h-7.837v-5.551h7.837v5.551zM9.143 23.837h-7.837v-22.531h7.837v22.531zM15.020 30.694h-4.571v-29.388h7.837v13.061h-4.898c-0.361 0-0.653 0.292-0.653 0.653v2.286c0 0.361 0.292 0.653 0.653 0.653h0.653v10.775c0 0.361 0.292 0.653 0.653 0.653h0.327v1.306zM17.306 30.694h-0.98v-1.306h0.98v1.306zM28.735 30.694h-0.979v-1.306h0.979v1.306zM29.714 28.082h-14.367v-4.571h14.367v4.571zM29.714 22.204h-14.367v-4.245h14.367v4.245zM30.694 16.653h-16.653v-0.98h16.653v0.98z"></path>
<path d="M23.51 19.265h-1.959v1.306h1.959v-1.306z"></path>
<path d="M23.51 24.816h-1.959v1.306h1.959v-1.306z"></path>
<path d="M13.061 10.449h-1.306v2.612h1.306v-2.612z"></path>
<path d="M7.837 10.449h-1.306v2.612h1.306v-2.612z"></path>
<path d="M6.204 27.102h-1.959v1.306h1.959v-1.306z"></path>
</symbol>
<symbol id="icon-kitchen-icon" viewBox="0 0 32 32">
<path d="M0 2.695h30.992c0.122 0 0.24 0.023 0.346 0.070 0.151 0.065 0.435 0.349 0.495 0.497 0.044 0.107 0.070 0.224 0.070 0.346v6.177c0 0.122-0.023 0.24-0.070 0.349-0.047 0.112-0.114 0.211-0.198 0.297l-0.011 0.008c-0.083 0.081-0.18 0.146-0.286 0.19s-0.224 0.070-0.346 0.070h-12.612c-0.039 0-0.068-0.031-0.068-0.068v-6.862h-9.828v1.794l3.2 3.641c0.091 0.104 0.133 0.234 0.125 0.365-0.008 0.128-0.065 0.253-0.169 0.346l-0.005 0.003c-0.047 0.039-0.096 0.070-0.151 0.089-0.055 0.021-0.115 0.031-0.172 0.031h-9.615c-0.138 0-0.266-0.057-0.354-0.148-0.091-0.091-0.148-0.216-0.148-0.354 0-0.073 0.016-0.141 0.044-0.203 0.029-0.065 0.070-0.122 0.122-0.169l3.294-3.602v-1.792h-4.656v-1.076zM8.216 17.951c0.297 0 0.539 0.242 0.539 0.539s-0.242 0.539-0.539 0.539c-0.297 0-0.539-0.242-0.539-0.539s0.242-0.539 0.539-0.539zM4.779 17.951c0.297 0 0.539 0.242 0.539 0.539s-0.242 0.539-0.539 0.539c-0.297 0-0.539-0.242-0.539-0.539s0.242-0.539 0.539-0.539zM8.495 15.057v1.325h22.596c0.5 0 0.911 0.411 0.911 0.911v11.099c0 0.5-0.409 0.912-0.909 0.912-10.052 0-20.099 0-30.154 0-0.497 0-0.911-0.414-0.911-0.912v-11.099c0-0.503 0.409-0.911 0.911-0.911h3.563c0-0.443 0-0.883 0-1.325h1.185v0.57h-0.542v0.755h2.708v-0.755h-0.542v-0.57h1.182zM30.995 17.388h-7.714v10.911h7.716v-10.911h-0.003zM22.276 17.388h-10.096v2.43h10.096v-2.43zM11.175 17.388h-10.143v10.911h10.143v-10.911zM12.18 28.297h10.096v-7.474h-10.096v7.474zM24.479 17.951c0.073 0 0.143 0.016 0.206 0.042l0.003 0.003c0.065 0.026 0.122 0.068 0.172 0.115 0.049 0.049 0.088 0.109 0.117 0.174 0.026 0.063 0.042 0.133 0.042 0.206s-0.016 0.141-0.042 0.206c-0.029 0.065-0.068 0.125-0.117 0.174l-0.005 0.003c-0.049 0.047-0.107 0.086-0.172 0.112-0.062 0.026-0.133 0.042-0.206 0.042s-0.143-0.016-0.206-0.042c-0.063-0.026-0.12-0.065-0.169-0.112l-0.008-0.005c-0.049-0.049-0.088-0.109-0.114-0.174l-0.003-0.003c-0.026-0.063-0.039-0.13-0.039-0.203s0.016-0.143 0.042-0.206c0.026-0.065 0.068-0.125 0.117-0.174s0.109-0.089 0.174-0.117l0.003-0.003c0.068-0.023 0.136-0.036 0.206-0.036zM19.352 3.771h-0.034v5.919h11.586v-5.919h-11.552zM20.341 4.43c0.049-0.047 0.107-0.086 0.172-0.112 0.063-0.026 0.133-0.042 0.206-0.042s0.143 0.016 0.206 0.042l0.003 0.003c0.065 0.026 0.122 0.068 0.172 0.115 0.049 0.049 0.089 0.109 0.117 0.174 0.026 0.063 0.042 0.133 0.042 0.206s-0.016 0.143-0.042 0.206l-0.003 0.003c-0.026 0.063-0.065 0.12-0.112 0.167l-0.008 0.008c-0.049 0.047-0.107 0.086-0.169 0.112s-0.133 0.042-0.206 0.042c-0.073 0-0.143-0.016-0.206-0.042-0.065-0.026-0.125-0.068-0.174-0.117s-0.089-0.109-0.117-0.174c-0.026-0.063-0.042-0.133-0.042-0.206s0.016-0.141 0.042-0.206c0.029-0.065 0.068-0.125 0.117-0.174l0.003-0.003z"></path>
</symbol>
<symbol id="icon-living-icon" viewBox="0 0 32 32">
<path d="M30.979 18.166h-30.184c-0.437 0-0.794 0.325-0.794 0.722v12.276c0 0.397 0.357 0.722 0.794 0.722s0.794-0.325 0.794-0.722v-7.221h28.596v7.221c0 0.397 0.357 0.722 0.794 0.722s0.794-0.325 0.794-0.722v-12.276c0-0.397-0.357-0.722-0.794-0.722zM15.092 22.499h-13.503v-2.889h13.503v2.889zM30.184 22.499h-13.504v-2.889h13.503v2.889h0z"></path>
<path d="M11.121 15.278c-0.437 0-0.794 0.325-0.794 0.722s0.357 0.722 0.794 0.722h10.326c0.437 0 0.794-0.325 0.794-0.722s-0.358-0.722-0.794-0.722h-10.326z"></path>
<path d="M3.972 13.834h23.83c0.437 0 0.794-0.325 0.794-0.722v-12.276c0-0.397-0.357-0.722-0.794-0.722h-23.83c-0.437 0-0.794 0.325-0.794 0.722v12.276c0 0.397 0.357 0.722 0.794 0.722zM4.766 1.558h22.241v10.832h-22.241v-10.832z"></path>
</symbol>
<symbol id="icon-office-desk-icon" viewBox="0 0 32 32">
<path d="M26.013 27.18c-0.758 0-1.37 0.133-1.367 0.292 0 0.162 0.612 0.292 1.367 0.292s1.367-0.13 1.367-0.292c0-0.161-0.612-0.292-1.367-0.292zM8.716 2.010c-0.216 0-0.393 0.177-0.393 0.393v8.117c0 0.216 0.177 0.393 0.393 0.393h13.646c0.216 0 0.393-0.177 0.393-0.393v-8.12c0-0.214-0.177-0.391-0.393-0.391h-13.646zM13.76 11.456h3.557c0.008 0.581 0.234 1.104 0.836 1.526h13.156c0.19 0 0.362 0.078 0.487 0.201 0.125 0.125 0.203 0.297 0.203 0.487v2.047c0 0.19-0.078 0.362-0.203 0.487s-0.297 0.203-0.487 0.203h-0.044v13.094c0 0.133-0.055 0.255-0.143 0.341l-0.003 0.003c-0.088 0.089-0.208 0.143-0.341 0.143h-9.406c-0.133 0-0.255-0.055-0.344-0.143-0.016-0.016-0.031-0.034-0.044-0.052-0.063-0.081-0.099-0.182-0.099-0.292v-13.094h-15.055v13.094c0 0.135-0.055 0.255-0.143 0.344s-0.211 0.143-0.344 0.143h-2.307c-0.133 0-0.253-0.055-0.341-0.143s-0.143-0.208-0.143-0.341v-13.096h-1.865c-0.19 0-0.362-0.078-0.487-0.203-0.122-0.125-0.201-0.297-0.201-0.487v-2.047c0-0.19 0.078-0.362 0.203-0.487s0.297-0.201 0.487-0.201h12.224c0.495-0.385 0.849-0.854 0.846-1.526zM15.539 9.591c0.279 0 0.503 0.227 0.503 0.503 0 0.279-0.227 0.503-0.503 0.503-0.279 0-0.505-0.227-0.505-0.503 0.003-0.276 0.227-0.503 0.505-0.503zM9.503 2.75h12.070c0.19 0 0.346 0.156 0.346 0.346v5.833c0 0.19-0.156 0.346-0.346 0.346h-12.070c-0.19 0-0.346-0.156-0.346-0.346v-5.833c0-0.19 0.156-0.346 0.346-0.346zM21.688 20.107h8.776v-3.698h-8.776v3.698zM30.466 20.906h-8.776v3.771h8.776v-3.771zM30.466 25.482h-8.776v3.703h8.776v-3.703zM31.198 13.781h-30.396v1.82h30.396v-1.82zM5.029 16.406h-1.677v12.776h1.677v-12.776zM26.013 17.927c0.755 0 1.367 0.122 1.367 0.276s-0.612 0.276-1.367 0.276-1.367-0.125-1.367-0.276c0-0.151 0.609-0.276 1.367-0.276zM26.013 22.547c0.755 0 1.367 0.13 1.367 0.292s-0.612 0.292-1.367 0.292c-0.755 0-1.367-0.13-1.367-0.292-0.003-0.161 0.609-0.292 1.367-0.292z"></path>
</symbol>
</defs>
</svg>
